<?xml version="1.0" encoding="UTF-8"?>
<svg width="342px" height="361px" viewBox="0 0 342 361" version="1.1" xmlns="http://www.w3.org/2000/svg" xmlns:xlink="http://www.w3.org/1999/xlink">
    <!-- Generator: Sketch 52.6 (67491) - http://www.bohemiancoding.com/sketch -->
    <title>thorwebdev_standard_handle</title>
    <desc>Created with Sketch.</desc>
    <g id="thorwebdev_standard_handle" stroke="none" stroke-width="1" fill="none" fill-rule="evenodd">
        <g transform="translate(15.000000, 7.000000)">
            <g id="layer101" fill="#000000">
                <path d="M170.106975,350.857172 C164.825332,350.452492 160.162259,349.190844 155.594352,346.9294 C152.525289,345.4059 147.93359,342.09705 147.767052,341.287691 C147.695678,340.97823 147.433975,338.121668 147.148481,334.908037 C146.886778,331.694405 146.553701,327.909461 146.434745,326.457375 C146.315789,325.029095 146.101669,322.577213 145.958922,321.053713 C145.839966,319.506409 145.602054,316.983113 145.483098,315.459613 C145.340351,313.912309 144.269748,301.676704 143.103979,288.250865 C141.938211,274.825025 140.867608,262.58942 140.724861,261.065921 C140.605905,259.518616 140.391784,257.019125 140.249037,255.51943 C140.130081,254.019736 139.915961,251.544049 139.773214,250.044354 C139.654258,248.544659 139.440137,246.068973 139.29739,244.569278 C139.178434,243.069583 138.964313,240.617701 138.821566,239.165615 C137.965083,229.310478 136.870689,217.003459 136.680359,214.694405 C136.275909,210.052492 136.133162,208.981282 135.990415,208.981282 C135.919042,208.981282 134.896021,209.147915 133.706461,209.314547 C131.47009,209.695422 130.637398,209.814446 120.02653,211.337945 C113.00813,212.361546 98.8047925,214.265921 90.6444159,215.289522 C87.2422764,215.718006 85.267608,216.075076 84.4587077,216.408342 C82.2937099,217.336724 80.6283269,217.146287 75.4180573,215.408545 C62.4756525,211.123703 51.4365426,206.338962 44.3705605,201.958901 C42.4434745,200.768667 37.6852375,197.293184 34.2593068,194.579451 C33.7359007,194.174771 32.2370561,192.984537 30.9285409,191.960936 C23.8387677,186.343032 20.2700899,183.1294 19.5087719,181.6059 C18.9377835,180.463276 15.7259735,170.846185 13.5847668,163.871414 C6.97081729,142.304374 2.64082157,122.118006 0.85648267,104.716785 C0.0713735558,97.242116 0,95.7424212 0,86.5062055 C0.0237911853,76.2701933 0.214120668,73.3660224 1.30851519,66.9863683 C2.75977749,58.7261445 5.51955499,50.9182096 8.82652974,45.7287894 C9.27856226,45.0384537 9.63543004,44.2528993 9.63543004,43.9434385 C9.65922122,43.1340793 10.2302097,41.7057986 10.9677364,40.6583927 C12.204878,38.8730417 12.7758665,38.5873856 22.7205819,35.0404883 C27.9308515,33.1837233 35.7581515,30.4461851 41.1587505,28.6370295 C44.037484,27.6610376 46.9875909,26.6612411 47.7013265,26.3993896 C58.5263158,22.733469 75.2039367,17.6392675 85.1724433,14.9731434 C86.7426615,14.5446592 88.9314506,13.9495422 90.0496363,13.6638861 C97.6628156,11.6166836 107.940608,9.4266531 116.933676,7.97456765 C132.540693,5.45127162 155.047154,3.04699898 178.43389,1.40447609 C200.892769,-0.142828077 202.93881,-0.238046796 207.363971,0.333265514 C216.261874,1.42828077 223.756098,3.33265514 231.607189,6.45106816 C237.959435,8.97436419 242.741463,11.4976602 248.855798,15.5920651 C253.875738,18.9247202 256.32623,20.876704 258.277107,23.1143438 C259.109799,24.066531 260.370732,25.4948118 261.108258,26.2803662 C267.76979,33.5645982 272.504236,49.1328586 275.121267,72.4614446 C276.976979,88.9580875 277.714506,104.454934 277.928626,131.378026 C278.071374,151.302543 278,153.587792 277.048353,157.206104 C275.264014,164.014242 270.410612,169.917803 264.082157,173.036216 C258.181943,175.916582 223.018571,188.485453 207.102268,193.389217 C204.294908,194.246185 201.630295,195.079349 201.178263,195.222177 L200.369362,195.460224 L200.535901,197.174161 C200.678648,198.816684 200.892769,201.173347 201.392383,206.910275 C201.511339,208.433774 201.749251,210.933266 201.868207,212.43296 C202.010954,213.932655 202.225075,216.432146 202.344031,217.979451 C202.486778,219.50295 203.390843,229.88179 204.366282,240.998576 C205.34172,252.139166 206.245785,262.518006 206.388532,264.089115 C206.531279,265.660224 207.601883,277.919634 208.767651,291.345473 C209.933419,304.771312 211.004022,317.006918 211.146769,318.554222 C211.265725,320.077721 211.503637,322.601017 211.622593,324.148321 C211.76534,325.671821 211.979461,328.123703 212.098417,329.551984 C212.241164,331.004069 212.407702,333.075076 212.479076,334.193896 L212.598032,336.217294 L210.861275,338.002645 C207.506718,341.454323 204.770732,343.406307 200.583483,345.382096 C192.327942,349.286063 179.623449,351.571312 170.106975,350.857172 Z" id="Path"></path>
            </g>
            <g id="layer102" transform="translate(25.527942, 45.704985)" fill="#5B3B20">
                <path d="M143.270518,297.368057 C138.084039,296.558698 134.372614,295.225636 130.970475,292.940387 C129.995036,292.29766 129.47163,291.773957 129.47163,291.488301 C129.47163,291.107426 121.977407,204.934486 119.241421,173.869379 C118.718015,167.989624 118.289773,162.895422 118.289773,162.538352 C118.289773,161.96704 118.384938,161.91943 120.264442,161.633774 C133.206846,159.657986 152.501498,155.730214 163.611981,152.826043 C165.562858,152.30234 167.228241,151.94527 167.299615,151.992879 C167.39478,152.111902 169.107745,171.369888 176.578177,257.161953 L179.24279,287.584334 L178.457681,288.393693 C178.005648,288.845982 176.887463,289.75056 175.959606,290.393286 C169.583569,294.797152 158.734788,297.582299 148.195293,297.510885 C145.816175,297.48708 143.603594,297.415666 143.270518,297.368057 Z" id="Path"></path>
                <path d="M55.5762088,160.84822 C56.2185708,151.088301 56.3375267,108.406511 55.7189559,96.1471007 C54.8624733,78.74588 53.6253316,68.1527976 51.1748395,57.4406918 C50.0090715,52.2750763 47.7964912,45.2526958 46.1073171,41.3963377 C45.9883611,41.1106816 46.2500642,40.8964395 47.0827557,40.5155646 C47.7251177,40.2537131 51.6982456,38.4683622 55.9568678,36.5639878 C90.9774925,20.9005086 120.359606,10.402645 140.70107,6.30824008 C151.621224,4.09440488 165.015661,2.45188199 179.789987,1.52349949 C191.542833,0.785554425 197.657167,0.618921668 216.142918,0.54750763 C229.680103,0.499898271 235.366196,0.404679552 235.960976,0.214242116 C236.436799,0.0476093591 236.841249,-0.0238046796 236.888832,0.0238046796 C237.031579,0.190437436 238.197347,4.68952187 238.887291,7.83173957 C242.955584,26.2327569 245.073,57.3692777 244.811297,94.7188199 C244.716132,106.26409 244.668549,107.859003 244.28789,109.239674 C243.026958,113.786368 240.243389,117.523703 236.341635,119.856562 C232.582627,122.141811 195.849037,135.329603 178.24356,140.75707 C157.592811,147.089115 141.010355,150.731231 111.390329,155.396948 C96.4970475,157.753611 58.0504921,163.03825 55.8854942,163.03825 C55.4334617,163.03825 55.4334617,162.919227 55.5762088,160.84822 Z M144.864527,114.667141 C144.793154,114.238657 144.222165,110.025229 143.603594,105.311902 C142.985024,100.598576 142.461617,96.718413 142.461617,96.718413 C142.414035,96.6231943 132.350364,98.2895219 131.565255,98.5275687 C130.399487,98.8608342 129.709542,99.765412 129.709542,100.955646 C129.709542,103.716989 135.014976,110.763174 138.845357,113.024619 C140.391784,113.953001 143.889089,115.428891 144.555242,115.428891 C144.91211,115.428891 144.959692,115.309868 144.864527,114.667141 Z M171.700984,103.883622 C172.747796,101.645982 173.41395,99.5511699 173.865982,97.0516785 C174.341806,94.5283825 174.199059,93.528586 173.22362,92.7192269 C172.390929,92.0288911 172.034061,91.9812818 169.274283,92.3859613 C167.680274,92.6240081 167.323406,92.7430315 167.418571,93.0524924 C167.466153,93.2429298 168.060933,96.0994914 168.727086,99.3607325 C170.321095,107.216277 170.154557,106.549746 170.582798,106.002238 C170.773128,105.764191 171.272743,104.812004 171.700984,103.883622 Z M119.360377,84.1257375 C125.213008,82.8878942 129.233718,78.0317396 129.305092,72.1043744 C129.352674,66.7245168 126.212238,62.2016277 121.02576,60.2020346 C119.193838,59.4878942 115.315875,59.3926755 113.293624,60.0354018 C108.107146,61.65412 104.490886,66.5816887 104.490886,72.0091556 C104.490886,76.5082401 107.084125,80.7930824 111.104835,82.8878942 C113.935986,84.387589 116.386478,84.7446592 119.360377,84.1257375 Z M173.104664,67.7005086 C173.532905,67.4862665 174.056312,67.0101729 174.270432,66.6292981 C174.936585,65.4866734 176.982627,63.3918616 178.172187,62.5825025 C181.550535,60.3448627 186.87976,60.3448627 190.353273,62.5586979 C191.661789,63.4156663 193.30338,65.0819939 194.30261,66.5816887 C195.397005,68.2480163 197.062388,68.414649 198.204365,66.9625636 C198.941891,66.0341811 198.822935,65.2010173 197.752332,63.5822991 C195.563543,60.2972533 191.875909,57.6549339 188.235858,56.7027467 C186.356354,56.2266531 182.478391,56.1790437 180.622679,56.607528 C178.195978,57.1788403 175.507574,58.6547304 173.580488,60.4876907 C171.629611,62.3444557 169.916645,64.7249237 169.916645,65.5818922 C169.916645,66.48647 170.41626,67.2958291 171.201369,67.676704 C172.129226,68.1289929 172.176808,68.1289929 173.104664,67.7005086 Z" id="Shape" fill-rule="nonzero"></path>
                <path d="M19.4373984,132.282604 C18.8664099,130.568667 18.3430039,125.974364 17.8909713,118.88057 C17.2486093,108.977823 17.3437741,87.0537131 18.0575096,80.9121058 L18.2002567,79.6028484 L16.3683355,82.0309257 C14.3698759,84.6970498 11.0153188,88.4581892 8.46966196,90.9338759 C5.3292255,93.9808749 2.30774497,96.0756867 2.0936243,95.385351 C2.02225075,95.2187182 1.92708601,90.6958291 1.85571245,85.3159715 C1.7843389,79.9599186 1.57021823,72.8899288 1.37988875,69.604883 C0.594779632,56.7503561 0.285494223,50.8229908 0.142747112,45.5621567 L0,40.0870804 L6.97081729,35.3975585 L13.9654258,30.7080366 L14.3698759,34.8024415 C15.2263586,43.5149542 15.9638853,53.0606307 16.178006,58.4880977 L16.3445443,62.3444557 L17.6054771,60.7019329 C20.1511339,57.3692777 25.9086008,52.298881 28.5256312,51.1324517 C29.6438169,50.6087487 30.1434318,50.7039674 30.3575524,51.4657172 C30.5716731,52.298881 30.5240907,61.4398779 30.2623877,65.3200407 C29.0728284,83.0783316 25.3614035,109.953815 21.9116816,125.664903 C20.6507488,131.354222 19.8418485,133.496643 19.4373984,132.282604 Z" id="Path"></path>
            </g>
            <g id="layer103" transform="translate(7.494223, 7.641302)" fill="#3C4147">
                <path d="M73.6099273,198.911902 C74.2522893,189.151984 74.3712452,146.470193 73.7526744,134.210783 C72.8961917,116.809563 71.6590501,106.21648 69.208558,95.5043744 C68.0427899,90.3387589 65.8302097,83.3163784 64.1410355,79.4600203 C64.0220796,79.1743642 64.2837826,78.9601221 65.1164741,78.5792472 C65.7588361,78.3173957 69.7319641,76.5320448 73.9905862,74.6276704 C109.011211,58.9641913 138.393325,48.4663276 158.734788,44.3719227 C169.654942,42.1580875 183.04938,40.5155646 197.823706,39.5871821 C209.576551,38.849237 215.690886,38.6826043 234.176637,38.6111902 C247.713821,38.5635809 253.399914,38.4683622 253.994694,38.2779247 C254.470518,38.111292 254.874968,38.0398779 254.92255,38.0874873 C255.065297,38.25412 256.231065,42.7532045 256.92101,45.8954222 C260.989303,64.2964395 263.106718,95.4329603 262.845015,132.782503 C262.74985,144.327772 262.702268,145.922686 262.321609,147.303357 C261.060676,151.850051 258.277107,155.587386 254.375353,157.920244 C250.616346,160.205493 213.882756,173.393286 196.277279,178.820753 C175.62653,185.152798 159.044074,188.794914 129.424048,193.460631 C114.530766,195.817294 76.0842105,201.101933 73.9192127,201.101933 C73.4671801,201.101933 73.4671801,200.982909 73.6099273,198.911902 Z M162.969619,152.730824 C162.850663,152.30234 162.255884,148.088911 161.637313,143.375585 C161.018742,138.662258 160.495336,134.782096 160.495336,134.782096 C160.447754,134.686877 150.384082,136.353204 149.598973,136.591251 C148.433205,136.924517 147.743261,137.829095 147.743261,139.019329 C147.743261,141.780671 153.048695,148.826857 156.879076,151.088301 C158.520668,152.064293 161.922807,153.492574 162.660334,153.492574 C163.112366,153.492574 163.159949,153.42116 162.969619,152.730824 Z M189.734703,141.947304 C190.781515,139.709664 191.447668,137.614852 191.8997,135.115361 C192.375524,132.592065 192.232777,131.592269 191.257338,130.782909 C190.424647,130.092574 190.067779,130.044964 187.308002,130.449644 C185.523663,130.711495 185.357125,130.782909 185.452289,131.211394 C185.523663,131.49705 186.118442,134.329807 186.760804,137.543438 C188.378605,145.422787 188.164484,144.661038 188.592726,144.089725 C188.783055,143.827874 189.306461,142.875687 189.734703,141.947304 Z M137.394095,122.18942 C143.246727,120.951577 147.267437,116.095422 147.33881,110.168057 C147.386393,104.788199 144.245956,100.26531 139.059478,98.2657172 C137.227557,97.5515768 133.349593,97.4563581 131.327343,98.0990844 C126.140864,99.7178026 122.524604,104.645371 122.524604,110.072838 C122.524604,114.571923 125.117843,118.856765 129.138554,120.951577 C131.969705,122.451272 134.420197,122.808342 137.394095,122.18942 Z M191.138383,105.764191 C191.566624,105.549949 192.09003,105.073856 192.304151,104.692981 C192.970304,103.550356 195.016346,101.455544 196.205905,100.646185 C199.584253,98.4085453 204.913479,98.4085453 208.386992,100.62238 C209.695507,101.479349 211.337099,103.145677 212.336329,104.645371 C213.430723,106.311699 215.096106,106.478332 216.238083,105.026246 C216.97561,104.097864 216.856654,103.2647 215.78605,101.645982 C213.597261,98.3609359 209.909628,95.7186165 206.269576,94.7664293 C204.390073,94.2903357 200.51211,94.2427263 198.656397,94.6712106 C196.229696,95.2425229 193.541292,96.718413 191.614206,98.5513733 C189.663329,100.408138 187.950364,102.788606 187.950364,103.645575 C187.950364,104.550153 188.449979,105.359512 189.235088,105.740387 C190.162944,106.192675 190.210526,106.192675 191.138383,105.764191 Z" id="Shape" fill-rule="nonzero"></path>
                <path d="M136.180745,111.239268 C135.133932,110.763174 133.777835,109.16826 133.444758,107.978026 C132.588276,104.788199 135.4908,101.479349 138.750193,101.907833 C142.532991,102.407731 144.364912,106.906816 142.009585,109.787182 C140.986564,111.001221 139.725631,111.596338 138.179204,111.572533 C137.48926,111.572533 136.585195,111.4059 136.180745,111.239268 Z" id="Path"></path>
                <path d="M65.1878477,198.792879 C53.3874198,194.531841 45.1794608,190.723093 39.2792469,186.747711 C36.0198545,184.557681 28.5494223,178.725534 22.1971759,173.440895 C18.3192127,170.203459 18.9139923,171.203255 16.2017972,162.895422 C8.731365,140.04293 3.83038083,119.499491 1.57021823,101.598372 C0.356867779,92.1717192 0,86.839471 0,78.6268566 C0,67.9147508 0.975438596,60.1306205 3.2356012,52.6559512 C4.09208387,49.7755849 6.09054343,44.9194303 6.49499358,44.6575788 C6.63774069,44.5861648 6.99460847,44.6099695 7.30389388,44.7289929 C7.61317929,44.8480163 9.01685922,45.0384537 10.4205392,45.1812818 C16.439709,45.7525941 22.4112965,48.2044761 30.1672229,53.3462869 C38.4703466,58.8451679 46.606932,66.7245168 52.4595635,74.9371312 C53.3398374,76.1749746 54.4104407,77.5794507 54.8624733,78.0317396 C56.2899444,79.5552391 59.3352161,87.363174 61.0243902,93.8618515 C63.8555413,104.645371 65.1402653,114.667141 66.1870774,133.615666 C66.5439452,140.019125 66.6153188,182.486673 66.2822422,192.603662 C66.0919127,199.05473 66.0681215,199.10234 65.1878477,198.792879 Z M41.2777065,177.606714 C43.276166,176.559308 44.8939666,174.250254 45.8931964,170.989013 C47.9630295,164.347508 51.4365426,144.184944 53.6491228,125.998169 C55.2431322,112.88179 55.861703,105.478535 56.0520325,97.1945066 C56.2185708,90.3387589 56.0282413,88.0059003 55.1003851,85.9825025 C53.0067608,81.4120041 47.3444587,80.007528 42.3958922,82.8402848 C41.7059478,83.2449644 41.087377,83.5068159 41.0397946,83.4592065 C40.9684211,83.4115972 40.8256739,82.0309257 40.6829268,80.3884028 C40.1595208,74.1277721 39.4695764,67.6290946 39.2316645,66.7245168 C38.8985879,65.4390641 37.756611,63.6775178 36.7573813,62.9395727 C34.5923834,61.2732452 31.4281558,60.8209563 29.1679932,61.7969481 C27.4550278,62.5586979 12.9186136,72.5090539 12.2524604,73.3660224 C11.943175,73.7945066 11.4435601,74.6514751 11.1580659,75.3180061 C10.658451,76.436826 10.6346598,76.7700916 10.6822422,82.1975585 C10.7298246,87.7678535 11.0629012,95.2425229 11.8004279,106.597355 C11.9907574,109.668159 12.204878,116.857172 12.2762516,122.54649 C12.3476252,128.235809 12.4903723,133.591862 12.6331194,134.425025 C13.0851519,137.233978 14.7981172,139.566836 17.2486093,140.685656 C19.1043218,141.51882 21.5310227,141.447406 23.5770646,140.495219 C24.4573385,140.066734 25.7420625,139.352594 26.4320068,138.876501 L27.7167309,138.019532 L28.0022251,147.11292 C28.4304664,161.038657 29.1204108,168.870397 30.2148053,172.298271 C31.0950792,175.012004 32.8794181,176.963988 35.2823278,177.820956 C36.9477107,178.416073 39.9216089,178.29705 41.2777065,177.606714 Z" id="Shape" fill-rule="nonzero"></path>
                <path d="M58.0029097,69.7477111 C51.2224219,60.5353001 43.7044074,53.3224822 34.4972187,47.1570702 C26.0275567,41.4915565 18.2478391,38.2779247 11.562516,37.6590031 L9.68301241,37.4923703 L13.227899,36.2069176 C46.9162174,24.0427263 76.3697047,14.9493388 96.2829268,10.5692777 C114.316645,6.59389624 141.747882,3.35645982 177.958066,0.928382503 C192.280359,-0.0476093591 195.159093,-0.142828077 198.037826,0.142828077 C213.287976,1.73774161 228.22884,7.52227874 240.409927,16.5442523 C244.977835,19.9245168 247.523492,22.9953204 250.259478,28.4465921 C250.925631,29.8034588 251.472828,30.9222787 251.472828,30.9460834 C251.472828,30.9936928 244.049979,31.0174975 235.009328,31.0413021 C194.873599,31.0889115 168.394009,33.6360122 145.958922,39.6347915 C124.951305,45.2288911 97.9245186,55.488708 65.23543,70.271414 C62.4518614,71.5330621 60.1441164,72.5566633 60.1203252,72.5566633 C60.096534,72.5566633 59.1448866,71.2950153 58.0029097,69.7477111 Z" id="Path"></path>
            </g>
            <g id="layer104" transform="translate(25.527942, 45.704985)" fill="#80532C">
                <path d="M142.223706,297.153815 C138.226786,296.534893 134.110911,295.011394 131.06564,293.011801 L129.566795,292.035809 L128.472401,279.252696 C127.85383,272.230315 127.401797,266.421974 127.44938,266.374364 C127.520753,266.326755 127.687291,266.398169 127.85383,266.540997 C128.401027,266.969481 137.108601,271.254323 139.820796,272.420753 C146.601284,275.324924 158.520668,278.657579 174.294223,282.061648 C176.62576,282.585351 178.624219,283.085249 178.719384,283.180468 C178.814549,283.275687 178.957296,284.346897 179.05246,285.560936 L179.218999,287.750966 L177.482242,289.179247 C172.557467,293.249847 165.205991,295.868362 155.094737,297.17762 C151.645015,297.606104 145.12623,297.606104 142.223706,297.153815 Z" id="Path"></path>
                <path d="M159.710227,258.947304 C155.665725,258.661648 152.049465,258.11414 146.173042,256.923906 C140.463158,255.781282 126.640479,252.401017 126.283611,252.067752 C126.069491,251.85351 123.880702,227.596541 124.04724,227.429908 C124.094822,227.358494 126.545315,228.524924 129.495421,230.000814 C132.421737,231.500509 136.156953,233.262055 137.798545,233.952391 C144.864527,236.927976 156.331878,240.165412 171.748567,243.545677 L175.364827,244.331231 L175.483783,245.045371 C175.721694,246.449847 176.649551,258.495015 176.530595,258.614039 C176.316474,258.852085 169.535986,259.209156 165.9911,259.161546 C164.040223,259.161546 161.209071,259.042523 159.710227,258.947304 Z" id="Path"></path>
                <path d="M160.638083,220.407528 C152.525289,219.979044 144.864527,218.622177 130.66119,215.051475 C126.807018,214.075483 123.428669,213.218515 123.166966,213.147101 C122.691142,213.004273 122.619769,212.385351 121.572957,200.22116 C120.954386,193.198779 120.478562,187.414242 120.502353,187.390437 C120.549936,187.366633 122.04878,188.199797 123.880702,189.247202 C128.734104,192.008545 136.014206,195.626857 139.630466,197.031333 C145.792383,199.483215 152.763201,201.482808 164.635002,204.220346 C168.655712,205.148728 171.962687,205.958087 172.01027,206.005697 C172.129226,206.12472 173.342576,220.169481 173.22362,220.2647 C172.985708,220.455137 163.778519,220.574161 160.638083,220.407528 Z" id="Path"></path>
                <path d="M155.522978,183.010376 C148.694908,182.36765 136.513821,179.749135 122.691142,175.940387 L119.360377,175.035809 L118.813179,168.751373 C118.527685,165.299695 118.313564,162.347915 118.361147,162.205086 C118.43252,162.062258 120.002739,161.705188 121.882242,161.395727 C135.823877,159.158087 153.024904,155.6588 163.302696,152.945066 L167.275824,151.89766 L167.418571,152.65941 C167.466153,153.06409 168.060933,159.7294 168.727086,167.442116 C169.369448,175.178637 169.964228,181.820142 170.035601,182.224822 C170.154557,182.867548 170.083184,183.010376 169.631151,183.1294 C168.846042,183.319837 158.044844,183.248423 155.522978,183.010376 Z" id="Path"></path>
                <path d="M55.5762088,161.324313 C56.2185708,153.563988 56.3375267,107.263886 55.7427471,95.9090539 C54.7197261,76.4606307 53.3160462,65.5580875 50.461104,54.4889115 C49.4618742,50.5373347 47.5585794,44.6813835 46.5593496,42.4437436 C46.226273,41.7057986 45.9883611,41.0630722 46.0121523,41.0630722 C48.7243475,39.7538149 60.8340608,34.3739573 67.543175,31.493591 C93.5707317,20.3053917 115.672743,12.402238 132.921352,8.09359105 C144.31733,5.26083418 156.284296,3.42787386 171.81994,2.14242116 C186.284981,0.952187182 194.968763,0.642726348 216.214292,0.571312309 C230.251091,0.52370295 235.271031,0.428484232 235.913393,0.214242116 C236.413008,0.0714140387 236.841249,-0.0238046796 236.865041,0.0238046796 C237.007788,0.190437436 238.221138,4.76093591 238.673171,6.87955239 C241.647069,20.3053917 243.407617,37.2543235 244.383055,61.7493388 C244.787505,71.5330621 244.977835,103.97884 244.644758,106.668769 C243.954814,112.643744 240.624048,117.642726 235.604108,120.285046 C232.749166,121.784741 207.768421,130.973347 193.707831,135.710478 C163.040993,146.017904 144.888318,150.278942 106.751048,156.111089 C92.5715019,158.277314 57.527086,163.03825 55.7189559,163.03825 C55.5048353,163.03825 55.4572529,162.609766 55.5762088,161.324313 Z M144.935901,114.690946 C144.840736,114.238657 144.222165,110.025229 143.603594,105.311902 C142.985024,100.598576 142.461617,96.718413 142.461617,96.6946083 C142.437826,96.646999 132.374155,98.2419125 131.636628,98.4085453 C131.327343,98.503764 130.780145,98.8608342 130.399487,99.2417091 C129.447839,100.170092 129.47163,101.407935 130.447069,103.359919 C132.849979,108.120855 136.347283,111.834385 140.415576,113.881587 C141.581344,114.500509 144.983483,115.690743 145.102439,115.571719 C145.12623,115.547915 145.054857,115.143235 144.935901,114.690946 Z M171.867522,103.574161 C172.938126,101.336521 173.913564,97.7420142 174.127685,95.385351 C174.270432,93.7904374 174.270432,93.7904374 173.41395,92.933469 C172.462302,91.9812818 172.081643,91.9336724 169.155327,92.3859613 C167.466153,92.6240081 167.323406,92.6954222 167.418571,93.1477111 C167.489944,93.4333672 168.084724,96.2661241 168.727086,99.4797558 C170.344887,107.359105 170.130766,106.597355 170.559007,106.026043 C170.749337,105.764191 171.344116,104.669176 171.867522,103.574161 Z M120.668892,83.8162767 C122.691142,83.1021363 123.785537,82.4832146 125.189217,81.2215666 C130.613607,76.3416073 130.732563,67.9623601 125.45092,62.9871821 C122.23911,59.9877925 118.2184,58.8689725 114.031151,59.8449644 C108.535387,61.1542218 104.490886,66.2722279 104.490886,71.9377416 C104.490886,79.1029502 110.486264,84.7922686 117.576038,84.3637843 C118.551476,84.316175 119.955156,84.0543235 120.668892,83.8162767 Z M172.961917,67.7957274 C173.366367,67.6528993 173.961147,67.1291963 174.341806,66.557884 C176.768507,62.8681587 180.170646,60.916175 184.167565,60.916175 C188.354814,60.916175 191.304921,62.4872838 193.850578,66.0579858 C194.445357,66.8911495 195.206675,67.6528993 195.587334,67.819532 C197.038596,68.414649 198.703979,67.2244151 198.703979,65.6056968 C198.703979,64.7249237 197.014805,62.3682604 195.040137,60.4876907 C193.113051,58.6547304 190.448438,57.202645 187.997946,56.607528 C186.142234,56.1552391 182.05015,56.2266531 180.146855,56.7265514 C176.43543,57.7263479 172.81917,60.4400814 170.654172,63.8679552 C170.249722,64.5344863 169.916645,65.296236 169.916645,65.5818922 C169.916645,66.5102747 170.463843,67.3910478 171.22516,67.7243133 C172.105434,68.1051882 172.081643,68.1051882 172.961917,67.7957274 Z" id="Shape" fill-rule="nonzero"></path>
                <path d="M19.3422336,131.830315 C17.6292683,126.878942 16.7727856,93.6952187 18.0337184,81.1501526 L18.2002567,79.6028484 L16.3921267,81.9833164 C12.2286692,87.506002 5.94779632,93.7666328 3.09285409,95.2187182 C2.40290971,95.5757884 2.16499786,95.6233978 2.0936243,95.385351 C2.02225075,95.2187182 1.92708601,90.5768057 1.85571245,85.0779247 C1.7843389,79.5790437 1.57021823,72.4614446 1.37988875,69.2478128 C0.689944373,58.1786368 0.309285409,50.5373347 0.166538297,45.3241099 L0,40.0870804 L6.92323492,35.4689725 C10.7298246,32.9218718 13.870261,30.8746694 13.9178434,30.9460834 C14.2271288,31.2793489 15.916303,52.1798576 16.1304236,58.2262462 L16.2969619,62.5586979 L17.0106975,61.4874873 C19.2470689,58.0834181 26.3130509,51.8942014 28.9776637,50.9896236 C30.3813436,50.4897253 30.3813436,50.4659207 30.3575524,57.9881994 C30.3575524,64.7249237 30.2385965,66.6769074 29.2869491,76.3892167 C27.3360719,96.3375381 22.6254172,125.522075 20.3652546,131.568464 C19.9132221,132.758698 19.6991014,132.830112 19.3422336,131.830315 Z" id="Path"></path>
            </g>
            <g id="layer105" transform="translate(7.518015, 7.641302)" fill="#575E66">
                <path d="M73.5861361,199.387996 C74.2284981,191.62767 74.347454,145.327569 73.7526744,133.972737 C72.7296534,114.524313 71.3259735,103.62177 68.4710312,92.5525941 C67.4718015,88.6010173 65.5685066,82.7450661 64.5692769,80.5074262 C64.2362003,79.7694812 63.9982884,79.1267548 64.0220796,79.1267548 C66.7342747,77.8174975 78.843988,72.4376399 85.5531023,69.5572737 C111.580659,58.3690743 133.68267,50.4659207 150.931279,46.1572737 C162.327257,43.3245168 174.294223,41.4915565 189.829867,40.2061038 C204.294908,39.0158698 212.978691,38.706409 234.224219,38.6349949 C248.261018,38.5873856 253.280958,38.4921668 253.92332,38.2779247 C254.422935,38.1350966 254.851177,38.0398779 254.874968,38.0874873 C255.017715,38.25412 256.231065,42.8246185 256.683098,44.943235 C259.656996,58.3690743 261.417544,75.3180061 262.392982,99.8130214 C262.797433,109.596745 262.987762,142.042523 262.654685,144.732452 C261.964741,150.707426 258.633975,155.706409 253.614035,158.348728 C250.759093,159.848423 225.778348,169.03703 211.717758,173.774161 C181.05092,184.081587 162.898246,188.342625 124.760976,194.174771 C110.581429,196.340997 75.5370133,201.101933 73.7288832,201.101933 C73.5147625,201.101933 73.4671801,200.673449 73.5861361,199.387996 Z M162.945828,152.65941 C162.826872,152.135707 162.232092,147.898474 161.637313,143.256562 C161.018742,138.614649 160.495336,134.782096 160.471545,134.758291 C160.447754,134.710682 150.384082,136.305595 149.646555,136.472228 C149.33727,136.567447 148.790073,136.924517 148.409414,137.305392 C147.457766,138.233774 147.481558,139.471617 148.456996,141.423601 C150.859906,146.184537 154.35721,149.898067 158.425503,151.94527 C159.56748,152.540387 162.99341,153.754425 163.112366,153.635402 C163.136157,153.611597 163.064784,153.183113 162.945828,152.65941 Z M189.87745,141.637843 C190.948053,139.400203 191.923492,135.805697 192.137612,133.449034 C192.280359,131.85412 192.280359,131.85412 191.423877,130.997152 C190.472229,130.044964 190.09157,129.997355 187.141463,130.449644 C185.428498,130.711495 185.285751,130.759105 185.404707,131.211394 C185.47608,131.49705 186.07086,134.329807 186.713222,137.543438 C188.331023,145.422787 188.116902,144.661038 188.568935,144.089725 C188.759264,143.827874 189.354044,142.732859 189.87745,141.637843 Z M138.678819,121.879959 C140.70107,121.165819 141.795464,120.546897 143.199144,119.285249 C148.623534,114.40529 148.74249,106.026043 143.460847,101.050865 C140.249037,98.0514751 136.228327,96.9326551 132.041078,97.908647 C126.545315,99.2179044 122.500813,104.33591 122.500813,110.001424 C122.500813,117.166633 128.496192,122.855951 135.585965,122.427467 C136.561404,122.379858 137.965083,122.118006 138.678819,121.879959 Z M190.971844,105.85941 C191.376294,105.716582 191.971074,105.192879 192.351733,104.621567 C194.778434,100.931841 198.180573,98.9798576 202.177493,98.9798576 C206.364741,98.9798576 209.314848,100.550966 211.860505,104.121668 C212.455285,104.954832 213.216602,105.716582 213.597261,105.883215 C215.048524,106.478332 216.713907,105.288098 216.713907,103.669379 C216.713907,102.788606 215.024733,100.431943 213.050064,98.5513733 C211.122978,96.718413 208.458365,95.2663276 206.007873,94.6712106 C204.152161,94.2189217 200.060077,94.2903357 198.156782,94.790234 C194.445357,95.7900305 190.829097,98.503764 188.664099,101.931638 C188.259649,102.598169 187.926573,103.359919 187.926573,103.645575 C187.926573,104.573957 188.47377,105.45473 189.235088,105.787996 C190.115362,106.168871 190.09157,106.168871 190.971844,105.85941 Z" id="Shape" fill-rule="nonzero"></path>
                <path d="M136.180745,111.191658 C134.848438,110.501322 133.920582,109.406307 133.539923,108.073245 C132.635858,104.978637 135.038768,101.836419 138.29816,101.836419 C139.559093,101.836419 141.438596,102.883825 142.152332,103.97884 C143.437056,105.930824 143.151562,108.787386 141.486179,110.33469 C140.201455,111.548728 137.632007,111.977213 136.180745,111.191658 Z" id="Path"></path>
                <path d="M61.2385109,197.316989 C52.3168164,193.960529 44.5846812,190.270804 39.7550706,187.033367 C35.7105691,184.343438 25.4327771,176.297457 19.651519,171.298474 C18.8426187,170.584334 18.6047069,170.10824 17.2248181,165.990031 C8.04142062,138.614649 2.54565682,114.429095 0.547197261,92.6716175 C0.0475823706,87.0537131 -0.142747112,75.0323499 0.190329482,70.2952187 C0.832691485,61.2970498 2.49807445,53.489115 4.97235772,47.7521872 C6.28087291,44.7051882 6.49499358,44.419532 7.2801027,44.7289929 C7.63697047,44.871821 9.06444159,45.0622584 10.4443303,45.2050865 C17.3437741,45.8002035 25.171074,49.4661241 34.3544715,56.3694812 C41.1111682,61.4398779 46.5831408,67.0339776 52.0313222,74.4610376 C53.1495079,75.9607325 54.3628584,77.5318413 54.7197261,77.9127162 C55.4810441,78.74588 57.1226359,82.1499491 58.3597775,85.4349949 C61.9998288,95.2901322 64.331365,107.644761 65.4971331,123.379654 C66.3536157,134.663072 66.4725717,139.781078 66.4725717,162.300305 C66.4725717,186.628688 66.2346598,198.959512 65.7826273,198.959512 C65.6398802,198.935707 63.5938383,198.221567 61.2385109,197.316989 Z M41.0160034,177.678128 C43.3713308,176.583113 45.0129226,174.131231 46.2500642,169.798779 C48.3674797,162.466938 52.2454429,138.757477 54.2201113,121.11821 C55.8379119,106.644964 56.5754386,92.7668362 55.9092854,88.8628688 C55.1479675,84.2685656 52.3643988,81.6262462 48.1057766,81.4120041 C45.9169876,81.3167854 44.4895165,81.6500509 42.3483098,82.8402848 C41.6583654,83.2211597 41.0635858,83.5068159 41.0160034,83.4592065 C40.9684211,83.4115972 40.8256739,82.0547304 40.6829268,80.4122075 C39.3744116,66.1055951 39.2792469,65.5104781 37.4235344,63.6299084 C35.2585366,61.3922686 31.8088147,60.6305188 29.1679932,61.7969481 C27.9308515,62.3444557 13.7988875,71.7711089 12.7996577,72.723296 C11.8718015,73.5802645 10.9439452,75.4370295 10.658451,76.960529 C10.3729568,78.5792472 10.7060334,89.4341811 11.3959777,101.003255 C12.1572957,113.619736 12.3476252,118.499695 12.3476252,126.140997 C12.3476252,133.758494 12.4665811,135.139166 13.3230638,136.924517 C14.8456996,140.185758 18.7712452,142.018718 22.1495935,141.018922 C23.5056911,140.638047 25.9086008,139.376399 27.0505777,138.471821 L27.6929397,137.971923 L27.9784339,147.089115 C28.3353017,159.253306 28.9300813,167.275483 29.7151904,170.774771 C30.5716731,174.53591 32.6652974,177.106816 35.6629867,178.035198 C35.9960633,178.130417 37.0666667,178.225636 38.0421053,178.225636 C39.4457852,178.24944 40.0881472,178.130417 41.0160034,177.678128 Z" id="Shape" fill-rule="nonzero"></path>
                <path d="M58.81181,70.8427263 C52.7212666,62.106409 43.7757809,53.3462869 34.9492512,47.4427263 C26.194095,41.5867752 19.2232777,38.6111902 12.1097133,37.7066124 L9.84955071,37.4209563 L11.2770218,36.921058 C12.0621309,36.6354018 16.820368,34.9452696 21.8640993,33.1599186 C54.6483526,21.5194303 82.7219512,13.1639878 101.56457,9.49806714 C121.43021,5.61790437 151.121609,2.49949135 190.2819,0.166632757 C195.70629,-0.166632757 198.299529,0 204.223534,1.07121058 C217.118357,3.35645982 228.704664,8.23641913 239.672401,15.9967447 C242.717672,18.1629705 245.28712,20.6148525 247.000086,22.9953204 C248.28481,24.8044761 250.283269,28.3275687 251.092169,30.2557477 L251.449037,31.1365209 L241.409157,30.9936928 C230.63175,30.82706 213.57347,31.1603255 202.558151,31.7316378 C178.529054,33.0170905 160.947368,35.5165819 144.626615,39.9442523 C123.999658,45.5859613 96.3780916,56.1076297 65.4495507,70.1523906 C62.5232349,71.461648 60.096534,72.5566633 60.0727428,72.5566633 C60.0489516,72.5566633 59.4779632,71.7711089 58.81181,70.8427263 Z" id="Path"></path>
            </g>
            <g id="layer106" transform="translate(7.518015, 7.641302)" fill="#717B86">
                <path d="M73.5861361,199.507019 C74.2284981,192.103764 74.347454,145.018108 73.7526744,133.615666 C72.7772358,115.071821 71.4211382,104.240692 68.7089431,93.3857579 C67.7572957,89.6246185 65.7350449,83.2925738 64.6168592,80.5550356 L64.0220796,79.1267548 L65.2592212,78.5554425 C78.8201968,72.2472024 101.350449,62.7967447 114.887634,57.7263479 C144.674198,46.5857579 162.37484,42.4437436 189.829867,40.2061038 C204.247326,39.0158698 213.335558,38.706409 234.319384,38.6349949 C248.475139,38.5873856 253.233376,38.5159715 253.92332,38.2779247 C254.399144,38.1350966 254.851177,38.0398779 254.898759,38.0874873 C254.92255,38.111292 255.398374,39.8728383 255.92178,41.9676501 C259.395293,55.6553408 261.298588,72.8899288 262.392982,100.170092 C262.773641,109.453917 262.963971,141.994914 262.678477,144.589624 C262.3454,147.374771 261.441335,150.0647 260.109029,152.230926 C258.752931,154.397152 255.802824,157.182299 253.685409,158.301119 C251.353872,159.515158 234.723834,165.751984 220.163629,170.86999 C207.34018,175.369074 192.779974,179.987182 182.621138,182.77233 C161.732478,188.485453 131.232178,193.770092 84.3397518,199.792675 C78.7012409,200.506816 73.966795,201.101933 73.7764656,201.101933 C73.5147625,201.101933 73.4671801,200.792472 73.5861361,199.507019 Z M162.945828,152.65941 C162.826872,152.135707 162.232092,147.898474 161.637313,143.256562 C161.018742,138.614649 160.495336,134.782096 160.471545,134.758291 C160.447754,134.734486 157.878306,135.139166 154.737869,135.639064 C149.170732,136.543642 149.004193,136.591251 148.385623,137.305392 C147.481558,138.305188 147.505349,139.495422 148.456996,141.423601 C150.859906,146.184537 154.35721,149.898067 158.425503,151.94527 C159.56748,152.540387 162.99341,153.754425 163.112366,153.635402 C163.136157,153.611597 163.064784,153.183113 162.945828,152.65941 Z M190.329482,140.661851 C191.162174,138.638454 192.208986,134.329807 192.208986,132.830112 C192.208986,131.949339 192.066239,131.639878 191.400086,130.973347 C190.472229,130.044964 190.067779,129.997355 187.141463,130.449644 C185.404707,130.711495 185.285751,130.759105 185.404707,131.235198 C185.595036,131.973143 188.164484,144.4706 188.164484,144.661038 C188.188276,144.994303 189.639538,142.304374 190.329482,140.661851 Z M137.513051,122.213225 C147.267437,120.142218 150.693368,107.882808 143.437056,101.02706 C142.556782,100.193896 141.248267,99.2417091 140.558323,98.9084435 C135.585965,96.5041709 130.042619,97.4087487 126.164656,101.241302 C121.23988,106.097457 121.263671,113.976806 126.212238,118.856765 C129.209927,121.83235 133.397176,123.070193 137.513051,122.213225 Z M191.185965,105.811801 C191.447668,105.645168 192.161404,104.883418 192.732392,104.097864 C195.515961,100.31292 198.632606,98.7894201 203.033975,99.0512716 C206.555071,99.2417091 209.005563,100.503357 211.170561,103.2647 C212.954899,105.526144 213.287976,105.85941 213.930338,106.026043 C215.286436,106.359308 216.713907,105.14527 216.713907,103.669379 C216.713907,102.074466 212.57424,97.5991862 209.695507,96.0756867 C207.245015,94.790234 205.389303,94.3617497 202.32024,94.3617497 C198.632606,94.3617497 196.134531,95.1234995 193.255798,97.0992879 C190.710141,98.8370295 187.926573,102.312513 187.926573,103.716989 C187.950364,105.45473 189.734703,106.62116 191.185965,105.811801 Z" id="Shape" fill-rule="nonzero"></path>
                <path d="M61.2385109,197.316989 C53.5063757,194.412818 46.1311083,190.984944 41.1587505,187.985554 C38.1848524,186.200203 29.3583226,179.41587 22.0544288,173.298067 L18.7712452,170.560529 L16.4159178,163.39532 C4.99614891,128.807121 -0.428241335,99.7416073 0.0475823706,75.8893184 C0.214120668,67.5100712 0.832691485,62.0587996 2.28395379,56.1314344 C3.28318357,51.9180061 5.16268721,46.728586 6.28087291,45.0384537 C6.59015832,44.5623601 6.66153188,44.5385554 7.87488233,44.8480163 C8.5648267,45.0384537 9.63543004,45.1812818 10.2540009,45.1812818 C11.5149337,45.1812818 14.1319641,45.7049847 16.3683355,46.3953204 C22.4588789,48.2520855 30.8095849,53.2272635 37.9231493,59.1784334 C42.7527599,63.2252289 49.1050064,70.1761953 52.8878049,75.5798576 C53.6015404,76.6034588 54.4104407,77.6746694 54.695935,77.9127162 C56.0996149,79.1981689 58.9307659,86.3157681 60.8816431,93.5047813 C65.354386,110.001424 66.8056483,129.735504 66.4963629,169.560732 C66.3298246,192.532248 66.1632863,198.959512 65.7826273,198.959512 C65.6398802,198.935707 63.5938383,198.221567 61.2385109,197.316989 Z M41.0160034,177.678128 C42.4434745,177.011597 44.2040223,175.154832 45.0367137,173.393286 C47.5585794,168.061038 52.5785195,138.281384 54.9338468,114.690946 C56.1234061,102.621974 56.4802739,91.5289929 55.7665383,88.1963377 C55.1003851,85.05412 53.3160462,82.8164802 50.6752246,81.8166836 C49.5808301,81.4120041 48.9622593,81.34059 47.1779204,81.4120041 C45.2270432,81.4834181 44.8463843,81.6024415 43.0382542,82.5070193 C41.9438596,83.054527 41.0160034,83.4592065 40.9922122,83.4354018 C40.9684211,83.4115972 40.8256739,82.0071211 40.6829268,80.2931841 C39.9929825,72.3900305 39.421994,67.3434385 39.0889174,66.2960326 C38.4941378,64.4868769 37.114249,62.9633774 35.2823278,62.0587996 C33.9262302,61.3684639 33.4266153,61.2732452 31.9991442,61.2732452 C30.8095849,61.2732452 29.9768935,61.4160732 29.1917843,61.7731434 C27.5264014,62.5348932 13.1803166,72.2233978 12.4427899,73.1041709 C11.5387249,74.1753815 10.7298246,76.0083418 10.5632863,77.4366226 C10.3491656,78.9839268 10.8011981,91.1005086 11.3959777,101.122279 C12.1572957,113.929196 12.3476252,118.737742 12.3476252,126.26002 C12.3476252,130.211597 12.4665811,133.996541 12.585537,134.710682 C13.1089431,137.424415 14.6553701,139.471617 17.082071,140.614242 C18.1764656,141.11414 18.747454,141.233164 20.3176722,141.233164 C22.4112965,141.233164 23.4581087,140.852289 26.3130509,138.995524 L27.740522,138.067141 L27.9070603,145.018108 C28.2639281,160.538759 29.0728284,169.441709 30.428926,173.06002 C31.2616175,175.29766 33.4028241,177.344863 35.6629867,178.035198 C35.9960633,178.130417 37.0666667,178.225636 38.0421053,178.225636 C39.4457852,178.24944 40.0881472,178.130417 41.0160034,177.678128 Z" id="Shape" fill-rule="nonzero"></path>
                <path d="M57.7412067,69.3906409 C47.5347882,55.5125127 32.1656825,43.5387589 19.009157,39.2539166 C16.2255884,38.3493388 14.9884467,38.0874873 12.1335045,37.7066124 L9.87334189,37.4209563 L17.0106975,34.8976602 C51.8409927,22.4478128 79.7480531,13.9733469 98.614463,10.0931841 C117.171588,6.2844354 141.890629,3.40406918 176.62576,1.0474059 C193.565083,-0.119023398 195.278049,-0.166632757 198.989474,0.285656155 C213.216602,2.04720244 225.61181,6.59389624 237.174326,14.3066124 C242.432178,17.829705 244.954044,20.0673449 247.214206,23.2809766 C248.28481,24.8044761 250.378434,28.5656155 251.068378,30.1843337 L251.401455,31.0174975 L234.604878,31.0413021 C195.325631,31.0651068 169.583569,33.4931841 147.33881,39.2301119 C126.212238,44.7051882 97.3535302,55.6077314 64.593068,70.5094608 C62.1187848,71.6282808 60.096534,72.5566633 60.0727428,72.5328586 C60.0489516,72.5328586 59.0021395,71.1045778 57.7412067,69.3906409 Z" id="Path"></path>
            </g>
            <g id="layer107" transform="translate(25.551733, 76.627263)" fill="#A7A241">
                <path d="M19.3184424,100.884232 C17.6054771,96.0042726 16.7727856,63.2966429 18.0099273,50.3468973 L18.1764656,48.6805697 L16.7252033,50.6325534 C13.8226786,54.5365209 9.373727,59.3450661 6.16191699,62.0349949 C4.0445015,63.8203459 2.18878905,64.9153611 2.04604193,64.4392675 C1.99845956,64.2964395 1.90329482,59.6069176 1.83192127,54.0366226 C1.76054771,48.4663276 1.54642704,41.301119 1.33230638,38.0874873 C0.713735558,27.9943032 0.285494223,19.5674466 0.142747112,14.2828077 L0,9.16480163 L6.89944373,4.54669379 C10.7060334,1.99959308 13.8464698,-0.0476093591 13.8940522,0.0238046796 C14.0130081,0.119023398 15.2977321,14.4494405 15.7259735,20.1149542 C15.8449294,21.8288911 16.0114677,25.1139369 16.1066324,27.4467955 L16.2731707,31.6602238 L17.0344887,30.5414039 C19.6753102,26.6136317 26.9792041,20.3768057 29.2869491,20.0673449 L30.1910141,19.9483215 L30.3813436,21.0909461 C30.6430466,22.9715158 30.30997,34.2073245 29.7627728,40.2299084 C28.0973898,59.2974568 24.0766795,86.0539166 21.1741549,97.6467955 C20.1511339,101.7412 19.8180573,102.336317 19.3184424,100.884232 Z" id="Path"></path>
            </g>
            <g id="layer108" transform="translate(7.613179, 7.617497)" fill="#8B8089">
                <path d="M73.5385537,199.173754 C74.085751,189.509054 74.2998716,152.349949 73.8716303,140.185758 C73.1341036,118.618718 71.6828412,105.787996 68.6137783,93.4095626 C67.6859221,89.7198372 65.6874626,83.4354018 64.5216945,80.5788403 L63.9269148,79.1505595 L65.1640565,78.5792472 C65.8302097,78.2697864 69.7557552,76.5082401 73.8478391,74.6752798 C111.580659,57.9167854 139.915961,47.9188199 161.256654,43.8958291 C180.527514,40.2775178 201.891998,38.7540183 234.581087,38.6587996 C248.594095,38.6349949 253.11442,38.5397762 253.804365,38.3255341 C254.303979,38.1589013 254.756012,38.0636826 254.779803,38.111292 C254.946341,38.25412 256.564142,44.8956256 257.158922,47.7045778 C259.752161,60.2496439 261.417544,77.1747711 262.297818,100.31292 C262.678477,109.858596 262.868806,141.542625 262.583312,144.375381 C262.107488,149.017294 260.418314,152.564191 257.158922,155.634995 C255.993154,156.73001 254.565682,157.801221 253.590244,158.324924 C251.829696,159.253306 236.674711,164.966429 225.183569,169.060834 C205.436885,176.107019 188.640308,181.344049 175.174497,184.676704 C158.187591,188.890132 132.731023,193.293998 99.6850663,197.769278 C91.4533162,198.888098 74.085751,201.125738 73.6337184,201.125738 C73.5147625,201.125738 73.4671801,200.244964 73.5385537,199.173754 Z M162.850663,152.683215 C162.731707,152.159512 162.136928,147.922279 161.542148,143.280366 C160.923577,138.638454 160.400171,134.8059 160.37638,134.782096 C160.352589,134.758291 157.75935,135.139166 154.642704,135.662869 C149.075567,136.567447 148.909029,136.615056 148.290458,137.329196 C147.053316,138.686063 147.52914,140.447609 150.169961,144.589624 C151.597433,146.803459 154.928199,150.040895 157.116988,151.326348 C158.544459,152.159512 162.826872,153.873449 163.017202,153.683011 C163.040993,153.635402 162.969619,153.206918 162.850663,152.683215 Z M189.758494,141.756867 C190.87668,139.376399 191.828327,135.92472 192.042448,133.591862 L192.185195,131.877925 L191.328712,131.020956 C190.377065,130.068769 189.996406,130.02116 187.046299,130.473449 C185.309542,130.7353 185.190586,130.782909 185.309542,131.259003 C185.499872,132.044557 188.06932,144.494405 188.06932,144.661038 C188.06932,145.018108 188.87822,143.589827 189.758494,141.756867 Z M137.417886,122.23703 C143.674968,120.903967 148.052546,114.714751 147.172272,108.430315 C146.553701,103.836012 143.270518,99.8130214 138.940522,98.2657172 C136.942062,97.5515768 133.896791,97.4087487 131.945914,97.9324517 C126.236029,99.4083418 122.405648,104.312106 122.405648,110.072838 C122.405648,117.999797 129.66196,123.879552 137.417886,122.23703 Z M191.138383,105.787996 C191.519042,105.597558 192.161404,104.931027 192.565854,104.264496 C194.730852,100.908037 198.228156,99.0036623 202.225075,99.0036623 C206.198203,99.0274669 209.172101,100.598576 211.670175,104.002645 C212.740779,105.50234 213.57347,106.145066 214.358579,106.145066 C215.500556,106.145066 216.618742,104.931027 216.618742,103.693184 C216.618742,102.86002 215.024733,100.527162 213.335558,98.8846389 C210.647154,96.2661241 207.839795,94.9092574 204.152161,94.4331638 C198.680188,93.7428281 193.255798,95.9328586 189.806076,100.26531 C188.045528,102.455341 187.831408,102.836216 187.831408,103.716989 C187.831408,104.74059 188.164484,105.335707 188.973385,105.764191 C189.806076,106.21648 190.305691,106.240285 191.138383,105.787996 Z" id="Shape" fill-rule="nonzero"></path>
                <path d="M136.204536,111.239268 C132.017287,109.430112 132.374155,103.502747 136.751733,102.098271 C138.773984,101.455544 141.438596,102.621974 142.366453,104.526348 C143.294309,106.478332 142.889859,108.954018 141.391014,110.358494 C140.10629,111.572533 137.846128,111.953408 136.204536,111.239268 Z" id="Path"></path>
                <path d="M60.5485665,197.102747 C52.5309371,194.031943 46.868635,191.413428 41.7773214,188.390234 C38.0896876,186.200203 30.8095849,180.677518 22.5540436,173.774161 L18.6760804,170.560529 L16.439709,163.776195 C7.56559692,136.972126 2.47428327,114.262462 0.45203252,92.338352 C-0.0713735558,86.7204476 -0.166538297,71.4854527 0.309285409,67.3434385 C1.37988875,58.1548321 3.25939238,50.7039674 5.82884039,45.6573754 C6.3046641,44.7527976 6.39982884,44.6813835 7.08977321,44.8242116 C7.51801455,44.8956256 8.87411211,45.0622584 10.1350449,45.1812818 C14.3460847,45.609766 17.8909713,46.7047813 22.5778348,49.0614446 C33.3314506,54.4651068 43.5854514,63.2490336 51.2937955,73.6516785 C52.4595635,75.2227874 53.8394523,76.9843337 54.3390672,77.5794507 C57.1702182,80.8883011 60.8578519,91.8622584 62.9038939,103.050458 C65.6874626,118.190234 66.6629012,136.567447 66.4011981,169.34649 C66.2346598,192.43703 66.0681215,198.983316 65.6874626,198.959512 C65.5447154,198.959512 63.2369705,198.126348 60.5485665,197.102747 Z M41.0635858,177.725738 C42.372101,177.083011 44.0136928,175.29766 44.7988019,173.678942 C47.9630295,167.204069 53.934617,129.497457 55.6713736,104.835809 C56.1471973,98.1466938 56.1471973,90.1007121 55.6713736,88.0773143 C54.9338468,84.982706 53.1732991,82.8164802 50.5800599,81.8404883 C49.4856654,81.4358087 48.8670946,81.3643947 47.1065469,81.4358087 C45.0129226,81.5310275 43.9661104,81.864293 41.0160034,83.4592065 C40.9446299,83.5068159 40.7543004,82.0785351 40.5877621,80.2693795 C39.8264442,71.461648 39.3030381,67.2006104 38.8747967,66.0341811 C37.9469405,63.5346897 35.4012837,61.6065107 32.617715,61.2732452 C30.2385965,60.9637843 29.2393667,61.4636826 21.7689345,66.4626653 C13.0851519,72.2710071 12.5379546,72.6994914 11.6100984,74.2229908 C10.3253744,76.3416073 10.2540009,77.2461851 10.5632863,85.9110885 C10.7060334,90.1721261 10.9915276,96.1709054 11.1818571,99.2417091 C11.3721866,102.312513 11.6338896,106.883011 11.8004279,109.358698 C11.943175,111.858189 12.1335045,118.642523 12.2286692,124.474669 C12.4427899,136.257986 12.4189987,136.186572 14.1081729,138.376602 C14.6791613,139.162157 15.5118528,139.828688 16.5348738,140.4 C17.9623449,141.185554 18.2240479,141.256968 20.1035516,141.256968 C22.339923,141.256968 23.3153616,140.899898 26.2178862,139.019329 L27.6453573,138.090946 L27.8118956,145.160936 C28.0735986,156.753815 28.6921694,165.823398 29.5248609,170.227263 C29.7389816,171.322279 30.2148053,172.869583 30.5954643,173.678942 C31.4519469,175.488098 33.3790329,177.321058 34.9968335,177.868566 C36.5432606,178.392269 39.8502353,178.320855 41.0635858,177.725738 Z" id="Shape" fill-rule="nonzero"></path>
                <path d="M58.6452717,70.723703 C54.7673085,65.2486267 48.7243475,58.5595117 43.7757809,54.2984741 C32.4987591,44.5623601 20.8410783,38.5635809 11.3959777,37.6351984 L9.77817715,37.4685656 L11.5387249,36.8258393 C54.6245614,21.4242116 81.9844245,13.1877925 103.3727,9.16480163 C122.358066,5.59409969 150.645785,2.61851475 186.618057,0.428484232 C195.040137,-0.0952187182 195.349422,-0.0952187182 198.751562,0.309460834 C209.219683,1.54730417 218.997861,4.47527976 228.157467,9.14099695 C237.269491,13.7591048 244.430638,19.1865717 247.380745,23.6856562 C248.570304,25.4948118 250.378434,28.7798576 250.973214,30.2557477 L251.353872,31.1127162 L240.814377,30.9936928 C208.648695,30.5890132 178.790757,32.683825 157.97347,36.7782299 C135.728712,41.1582909 103.515447,52.7987792 64.4979033,70.5332655 C62.02362,71.6520855 60.0013693,72.580468 59.9775781,72.580468 C59.9537869,72.580468 59.3590073,71.7473042 58.6452717,70.723703 Z" id="Path"></path>
            </g>
            <g id="layer109" transform="translate(7.589388, 7.641302)" fill="#9BA9BA">
                <path d="M73.5623449,199.149949 C74.1095421,189.485249 74.3236628,151.969074 73.8954215,139.923906 C73.2292683,120.903967 71.9921267,108.787386 69.6130081,97.5753815 C68.4234489,91.8860631 66.2108686,84.4828077 64.6406504,80.8168871 C64.3551562,80.1741607 64.1410355,79.5314344 64.1410355,79.3648016 C64.1410355,78.7220753 89.240736,67.7719227 104.58605,61.6779247 C126.997347,52.7987792 146.149251,46.7523906 160.614292,44.0148525 C171.915105,41.8486267 185.047839,40.3489318 200.226615,39.4681587 C211.099187,38.849237 217.403851,38.6826043 234.485922,38.6349949 C248.641677,38.6111902 253.138211,38.5159715 253.828156,38.3017294 C254.327771,38.1350966 254.779803,38.0398779 254.827386,38.0874873 C255.041506,38.3017294 257.158922,47.4427263 257.777493,50.8944049 C261.155841,69.4620549 262.607103,92.3145473 262.654685,126.950356 L262.678477,145.518006 L262.131279,147.398576 C261.179632,150.683622 259.894908,152.849847 257.468207,155.277925 C254.827386,157.896439 254.089859,158.301119 246.857338,161.062462 C220.663243,171.060427 196.51519,179.106409 178.576637,183.819736 C158.9727,188.961546 125.998117,194.508037 81.413436,200.149746 C77.2499786,200.673449 73.7526744,201.101933 73.6337184,201.101933 C73.5385537,201.101933 73.4909713,200.22116 73.5623449,199.149949 Z M162.874454,152.65941 C162.755499,152.135707 162.160719,147.898474 161.565939,143.256562 C160.947368,138.614649 160.423962,134.782096 160.400171,134.758291 C160.37638,134.734486 157.783141,135.115361 154.666496,135.639064 C149.099358,136.543642 148.93282,136.591251 148.314249,137.305392 C147.291228,138.424212 147.33881,139.328789 148.52837,141.709257 C151.502268,147.612818 156.427043,151.89766 161.922807,153.37355 C162.517587,153.540183 163.017202,153.635402 163.040993,153.635402 C163.064784,153.611597 162.99341,153.183113 162.874454,152.65941 Z M189.401626,142.494812 C190.87668,139.63825 192.137612,135.139166 192.137612,132.734893 C192.137612,131.973143 191.971074,131.616073 191.328712,130.973347 C190.400856,130.044964 189.948823,129.997355 187.022507,130.425839 C185.309542,130.687691 185.214377,130.7353 185.333333,131.235198 C185.499872,131.925534 188.093111,144.494405 188.093111,144.661038 C188.093111,144.899084 188.568935,144.137335 189.401626,142.494812 Z M137.441677,122.213225 C139.773214,121.713327 141.819255,120.570702 143.627386,118.761546 C147.505349,114.881384 148.409414,109.501526 146.006504,104.573957 C142.223706,96.8612411 132.160034,95.1711089 126.093282,101.217497 C123.737955,103.574161 122.429439,106.668769 122.429439,109.93001 C122.429439,117.975992 129.614377,123.855748 137.441677,122.213225 Z M191.162174,105.764191 C191.542833,105.573754 192.185195,104.907223 192.589645,104.240692 C194.754643,100.884232 198.251947,98.9798576 202.248866,98.9798576 C206.221994,99.0036623 209.195892,100.574771 211.693967,103.97884 C213.16902,106.026043 214.001712,106.454527 215.334018,105.835605 C216.071545,105.50234 216.642533,104.526348 216.642533,103.62177 C216.642533,102.812411 215.119897,100.598576 213.35935,98.8370295 C210.76611,96.2899288 207.839795,94.8854527 204.175952,94.4093591 C198.204365,93.6476094 192.779974,96.123296 188.973385,101.336521 C187.450749,103.407528 187.450749,104.907223 188.997176,105.740387 C189.829867,106.192675 190.329482,106.21648 191.162174,105.764191 Z" id="Shape" fill-rule="nonzero"></path>
                <path d="M136.109371,111.144049 C132.778605,109.644354 132.302781,104.859613 135.27668,102.86002 C138.631237,100.574771 142.889859,102.788606 142.889859,106.811597 C142.889859,110.33469 139.321181,112.619939 136.109371,111.144049 Z" id="Path"></path>
                <path d="M61.1671374,197.293184 C53.1019255,194.246185 46.9400086,191.413428 42.0866068,188.533062 C38.2324347,186.247813 30.8571673,180.677518 22.5778348,173.774161 L18.6998716,170.536724 L16.5824561,164.109461 C7.56559692,136.876907 2.4267009,113.929196 0.475823706,92.0765005 C-0.0713735558,86.244354 -0.142747112,72.056765 0.333076594,67.5576806 C0.975438596,61.582706 2.21258023,55.3934893 3.61626016,51.180061 C4.30620454,49.1090539 5.97158751,45.2050865 6.28087291,44.8956256 C6.39982884,44.7766022 7.18493795,44.8004069 8.13658537,44.9194303 C9.04065041,45.0622584 10.7298246,45.2765005 11.8955926,45.4193286 C20.1273427,46.4191251 33.1173299,54.155646 42.7289688,63.7489318 C46.3214377,67.3196338 48.5816003,69.9381485 51.4841249,73.8659207 C52.5547283,75.3180061 53.8394523,76.960529 54.3390672,77.555646 C56.5278562,80.1027467 59.3827985,87.6250254 61.5002139,96.3613428 C65.3781772,112.358087 66.7342747,132.330214 66.4249893,169.203662 C66.258451,192.008545 66.0919127,198.959512 65.7112537,198.935707 C65.5685066,198.935707 63.5224647,198.197762 61.1671374,197.293184 Z M41.1349593,177.678128 C42.4672657,177.011597 44.0850663,175.250051 44.8939666,173.559919 C48.0819855,166.894608 53.9584082,129.473652 55.6951647,104.716785 C56.0996149,98.9322482 56.1471973,90.3625636 55.7903295,88.3867752 C55.4334617,86.3871821 54.695935,85.0065107 53.3160462,83.6020346 C51.6030809,81.864293 49.9614891,81.2929807 47.130338,81.4120041 C45.0367137,81.5072228 43.9899016,81.8404883 41.0397946,83.4354018 C40.9684211,83.4830112 40.7780916,82.0547304 40.6115533,80.2455748 C39.4695764,67.1053917 39.2078733,65.6771109 37.6138639,63.7965412 C36.5432606,62.5586979 34.2117244,61.3922686 32.4749679,61.2256358 C30.1434318,60.987589 29.0014549,61.5589013 21.316902,66.7245168 C13.2754814,72.128179 12.4665811,72.7471007 11.6576808,74.0087487 C10.3729568,76.0559512 10.277792,77.1271617 10.5870774,85.7682604 C10.7298246,90.1007121 11.0629012,97.0992879 11.3246042,101.360326 C12.0859221,114.024415 12.2762516,118.951984 12.2762516,126.593286 C12.2762516,134.686877 12.4189987,135.781892 13.7513051,137.876704 C15.0360291,139.852492 17.0344887,141.042726 19.5563543,141.280773 C21.5072315,141.471211 23.1250321,140.947508 25.6231065,139.376399 L27.6691485,138.090946 L27.8356868,145.375178 C28.121181,158.991455 28.9538725,168.98942 30.0244758,172.226857 C30.9047497,174.869176 32.998374,177.225839 35.0919983,177.89237 C36.6146341,178.368464 39.9454001,178.24944 41.1349593,177.678128 Z" id="Shape" fill-rule="nonzero"></path>
                <path d="M58.6690629,70.6998983 C46.3690201,53.3462869 26.0989303,39.0396745 11.8004279,37.6351984 L9.80196834,37.4447609 L11.562516,36.8020346 C51.2462131,22.6382503 76.9406932,14.711292 97.4486949,10.3312309 C117.02884,6.14160732 145.911339,2.92797558 186.546684,0.404679552 C193.945742,-0.0476093591 195.468378,-0.0952187182 197.728541,0.166632757 C213.026273,1.83296033 226.277963,6.80813835 239.05383,15.6634791 C244.573385,19.4722279 248.09448,23.7094608 250.759093,29.7320448 L251.353872,31.0889115 L240.600257,30.9698881 C207.673256,30.5890132 177.482242,32.7552391 156.807702,36.992472 C134.777065,41.5153611 102.896876,53.0606307 65.8302097,69.9143438 C62.6421908,71.3664293 60.0251605,72.5566633 60.0013693,72.5566633 C59.9775781,72.5566633 59.3827985,71.7234995 58.6690629,70.6998983 Z" id="Path"></path>
            </g>
            <g id="layer110" transform="translate(71.730424, 45.752594)" fill="#FF8282" fill-rule="nonzero">
                <path d="M9.44510056,161.276704 C9.96850663,150.183723 10.1826273,113.024619 9.75438596,101.455544 C8.77894737,75.0323499 6.68532306,60.392472 1.87950364,46.4429298 C1.21335045,44.4909461 0.499614891,42.6103764 0.333076594,42.2533062 C0.142747112,41.896236 0,41.4677518 0,41.2773143 C0,40.3965412 33.6883184,25.9947101 50.3183569,19.757884 C77.4640993,9.59328586 94.4510056,5.30844354 117.052632,2.92797558 C133.587505,1.1664293 146.767822,0.595116989 170.939666,0.54750763 C185.333333,0.499898271 189.377835,0.428484232 189.829867,0.190437436 C190.162944,-1.39124823e-14 190.472229,-0.0238046796 190.591185,0.0952187182 C190.971844,0.476093591 192.875139,8.52207528 193.755413,13.4972533 C197.062388,32.1839268 198.466068,54.822177 198.51365,89.1961343 C198.537441,107.311495 198.537441,107.406714 198.014035,109.263479 C197.10997,112.453306 195.753872,114.738555 193.30338,117.166633 C190.614976,119.880366 189.758494,120.30885 179.385537,124.189013 C145.578263,136.876907 122.429439,144.184944 102.254514,148.565005 C83.3167309,152.683215 55.4334617,157.13469 21.7689345,161.443337 C16.1542148,162.157477 11.03911,162.800203 10.4443303,162.871617 L9.34993582,163.014446 L9.44510056,161.276704 Z M98.876166,115.238454 C98.7334189,114.857579 96.3543004,97.5753815 96.3543004,96.9088505 C96.3543004,96.5279756 96.8063329,96.4803662 89.621395,97.6467955 C84.4587077,98.503764 84.0304664,98.6942014 83.4832691,100.31292 C83.2453573,101.050865 83.3167309,101.312716 84.1732135,103.121872 C86.5999144,108.168464 90.5968335,112.334283 94.8316645,114.214852 C95.7357296,114.619532 98.233804,115.452696 98.9475396,115.595524 C98.995122,115.619329 98.9475396,115.452696 98.876166,115.238454 Z M125.355755,104.193082 C126.830809,101.288911 127.996577,97.1230926 127.996577,94.7426246 C127.996577,93.8380468 127.877621,93.5523906 127.187677,92.8620549 C126.25982,91.9336724 125.807788,91.8860631 122.881472,92.3145473 C121.168507,92.5763988 121.073342,92.6240081 121.192298,93.1239064 C121.358836,93.8142421 123.952075,106.383113 123.952075,106.549746 C123.952075,106.811597 124.427899,106.002238 125.355755,104.193082 Z M73.4671801,84.0781282 C77.8209671,83.054527 81.3658537,79.6980671 82.7219512,75.3418108 C83.3167309,73.4374364 83.2453573,69.9619532 82.5792041,68.0099695 C80.7948652,62.8681587 76.0842105,59.4402848 70.7787762,59.4402848 C65.1164741,59.4402848 60.096534,63.2966429 58.6452717,68.7479145 C57.907745,71.5092574 58.2884039,74.9371312 59.6445015,77.6508647 C62.142576,82.6260427 68.0189987,85.3635809 73.4671801,84.0781282 Z M126.902182,67.7243133 C127.235259,67.5814852 128.044159,66.7483215 128.66273,65.8675483 C131.160804,62.4634791 134.134703,60.8923703 138.107831,60.8685656 C142.033376,60.8685656 144.935901,62.4396745 147.600513,65.962767 C148.694908,67.4148525 149.099358,67.7719227 149.74172,67.9147508 C151.192982,68.1766022 152.477706,67.081587 152.501498,65.5818922 C152.501498,63.7251272 148.52837,59.4640895 145.245186,57.8215666 C142.72332,56.5599186 141.272058,56.2266531 137.988875,56.2504578 C135.371844,56.2504578 134.777065,56.3456765 133.111682,56.9169888 C130.613607,57.7739573 128.686521,58.9641913 126.902182,60.7733469 C123.500043,64.1536114 122.810098,66.5340793 124.85614,67.6290946 C125.641249,68.0813835 126.117073,68.0813835 126.902182,67.7243133 Z" id="Shape"></path>
            </g>
            <g id="layer111" transform="translate(25.694480, 76.889115)" fill="#F2EB5F">
                <path d="M19.1756953,100.62238 C17.4865212,95.4091556 16.6300385,60.2496439 17.9385537,49.7993896 C18.0337184,48.9662258 18.105092,48.2996948 18.0813008,48.2996948 C18.0575096,48.2996948 17.6768507,48.7995931 17.2486093,49.4423194 C14.4412495,53.3938962 7.9224647,60.4162767 5.11510484,62.5110885 C3.49730424,63.7251272 2.11741549,64.4868769 1.92708601,64.3202442 C1.85571245,64.2250254 1.7843389,60.8447609 1.7843389,56.7741607 C1.7843389,49.0376399 1.6178006,44.5623601 0.832691485,31.5173957 C0.0951647411,19.1389624 -0.214120668,8.97436419 0.166538297,8.76012208 C0.333076594,8.66490336 3.42593068,6.59389624 7.01839966,4.16581892 C11.4673513,1.14262462 13.5847668,-0.166632757 13.7037227,0.0238046796 C14.0367993,0.666531027 15.4404792,17.3774161 15.8687206,25.5900305 L16.1542148,31.3269583 L17.1772358,29.9224822 C20.3890458,25.5662258 27.3836543,19.757884 29.405905,19.7340793 C30.2623877,19.7340793 30.3337612,20.2339776 30.3337612,25.5424212 C30.3337612,38.9444557 27.0505777,66.7007121 22.8395379,88.8866734 C21.4596491,96.1947101 20.1273427,101.38413 19.6277279,101.38413 C19.5087719,101.38413 19.3184424,101.02706 19.1756953,100.62238 Z" id="Path"></path>
            </g>
            <g id="layer112" transform="translate(71.730424, 45.752594)" fill="#C6BBC9">
                <path d="M9.44510056,161.276704 C9.96850663,150.183723 10.1826273,113.024619 9.75438596,101.455544 C8.77894737,75.0323499 6.68532306,60.392472 1.87950364,46.4429298 C1.21335045,44.4909461 0.499614891,42.6103764 0.333076594,42.2533062 C0.142747112,41.896236 0,41.4677518 0,41.2773143 C0,40.3965412 33.6883184,25.9947101 50.3183569,19.757884 C77.4640993,9.59328586 94.4510056,5.30844354 117.052632,2.92797558 C133.587505,1.1664293 146.767822,0.595116989 170.939666,0.54750763 C185.333333,0.499898271 189.377835,0.428484232 189.829867,0.190437436 C190.162944,-1.39124823e-14 190.472229,-0.0238046796 190.591185,0.0952187182 C190.971844,0.476093591 192.875139,8.52207528 193.755413,13.4972533 C197.062388,32.1839268 198.466068,54.822177 198.51365,89.1961343 C198.537441,107.311495 198.537441,107.406714 198.014035,109.263479 C197.10997,112.453306 195.753872,114.738555 193.30338,117.166633 C190.614976,119.880366 189.758494,120.30885 179.385537,124.189013 C145.578263,136.876907 122.429439,144.184944 102.254514,148.565005 C83.3167309,152.683215 55.4334617,157.13469 21.7689345,161.443337 C16.1542148,162.157477 11.03911,162.800203 10.4443303,162.871617 L9.34993582,163.014446 L9.44510056,161.276704 Z M114.840051,123.831943 C119.289003,122.427467 122.881472,118.618718 124.071031,114.04822 C124.45169,112.52472 124.546855,109.120651 124.213778,107.69237 C124.023449,106.883011 124.094822,106.597355 125.04647,104.812004 C126.711853,101.669786 127.972786,97.384944 127.996577,94.8140387 C127.996577,93.8380468 127.877621,93.5523906 127.187677,92.8620549 C126.545315,92.2193286 126.188447,92.0526958 125.474711,92.0526958 C124.998887,92.0526958 120.883012,92.6478128 116.362687,93.3619532 C106.727257,94.9092574 101.897647,95.6948118 97.7817715,96.3375381 C85.2200257,98.3609359 84.9107403,98.4085453 84.3397518,98.9560529 C84.0066752,99.2655137 83.6498074,99.8606307 83.4832691,100.31292 C83.2453573,101.050865 83.3167309,101.312716 84.1732135,103.121872 C86.7188703,108.406511 90.6919983,112.453306 95.3074882,114.40529 C96.2115533,114.786165 97.3535302,115.16704 97.8293539,115.262258 C98.6382542,115.428891 98.7810013,115.571719 99.6850663,117.40468 C100.779461,119.618515 103.039623,122.046592 104.919127,122.998779 C107.98819,124.569888 111.556868,124.879349 114.840051,123.831943 Z M73.4671801,84.0781282 C77.8209671,83.054527 81.3658537,79.6980671 82.7219512,75.3418108 C83.3167309,73.4374364 83.2453573,69.9619532 82.5792041,68.0099695 C80.7948652,62.8681587 76.0842105,59.4402848 70.7787762,59.4402848 C65.1164741,59.4402848 60.096534,63.2966429 58.6452717,68.7479145 C57.907745,71.5092574 58.2884039,74.9371312 59.6445015,77.6508647 C62.142576,82.6260427 68.0189987,85.3635809 73.4671801,84.0781282 Z M126.902182,67.7243133 C127.235259,67.5814852 128.044159,66.7483215 128.66273,65.8675483 C131.160804,62.4634791 134.134703,60.8923703 138.107831,60.8685656 C142.033376,60.8685656 144.935901,62.4396745 147.600513,65.962767 C148.694908,67.4148525 149.099358,67.7719227 149.74172,67.9147508 C151.192982,68.1766022 152.477706,67.081587 152.501498,65.5818922 C152.501498,63.7251272 148.52837,59.4640895 145.245186,57.8215666 C142.72332,56.5599186 141.272058,56.2266531 137.988875,56.2504578 C135.371844,56.2504578 134.777065,56.3456765 133.111682,56.9169888 C130.613607,57.7739573 128.686521,58.9641913 126.902182,60.7733469 C123.500043,64.1536114 122.810098,66.5340793 124.85614,67.6290946 C125.641249,68.0813835 126.117073,68.0813835 126.902182,67.7243133 Z" id="Shape" fill-rule="nonzero"></path>
                <path d="M71.9445443,73.0327569 C70.0174583,72.1519837 68.8516902,69.8905392 69.2323492,67.7719227 C69.9936671,63.5822991 75.5370133,62.4158698 77.9637142,65.9389624 C78.843988,67.2244151 79.0105263,69.4144456 78.3205819,70.7713123 C77.0834403,73.1755849 74.3712452,74.1277721 71.9445443,73.0327569 Z" id="Path"></path>
            </g>
            <g id="layer113" transform="translate(17.391356, 7.665107)" fill="#B6C5D6">
                <path d="M63.7841677,199.364191 C64.3075738,188.271211 64.5216945,151.112106 64.0934531,139.543032 C63.1180145,113.119837 61.0243902,98.4799593 56.2185708,84.5304171 C55.5524176,82.5784334 54.8386821,80.6978637 54.6721438,80.3407935 C54.4818143,79.9837233 54.3390672,79.5552391 54.3390672,79.3648016 C54.3390672,78.4840285 88.0273855,64.0821974 104.657424,57.8453713 C131.803166,47.6807731 148.790073,43.3959308 171.391699,41.0154629 C187.926573,39.2539166 201.106889,38.6826043 225.278733,38.6349949 C239.672401,38.5873856 243.716902,38.5159715 244.168935,38.2779247 C244.502011,38.0874873 244.811297,38.0636826 244.930252,38.182706 C245.310911,38.5635809 247.214206,46.6095626 248.09448,51.5847406 C251.401455,70.271414 252.805135,92.9096643 252.852717,127.283622 C252.876508,145.398983 252.876508,145.494201 252.353102,147.350966 C251.449037,150.540793 250.09294,152.826043 247.642448,155.25412 C244.954044,157.967854 244.097561,158.396338 233.724604,162.276501 C199.91733,174.964395 176.768507,182.272431 156.593582,186.652492 C137.655798,190.770702 109.772529,195.222177 76.1080017,199.530824 C70.493282,200.244964 65.3781772,200.887691 64.7833975,200.959105 L63.689003,201.101933 L63.7841677,199.364191 Z M167.466153,162.395524 C172.438511,161.514751 176.62576,157.801221 178.195978,152.897457 C178.695593,151.350153 178.814549,150.516989 178.814549,148.707833 C178.790757,147.46999 178.695593,146.065514 178.576637,145.613225 C178.410098,144.87528 178.505263,144.542014 179.409328,142.851882 C181.05092,139.757274 182.311853,135.448627 182.335644,132.901526 C182.335644,131.901729 182.240479,131.663683 181.502953,130.925738 C180.64647,130.068769 180.64647,130.068769 179.05246,130.211597 C177.43466,130.354425 140.51074,136.234181 139.630466,136.472228 C138.89294,136.710275 138.131622,137.519634 137.822336,138.400407 C137.584424,139.138352 137.655798,139.400203 138.512281,141.209359 C141.057938,146.493998 145.031065,150.540793 149.646555,152.492777 C150.55062,152.873652 151.692597,153.254527 152.168421,153.349746 C153.001113,153.516378 153.120068,153.635402 154.024134,155.539776 C155.784681,159.134283 159.16303,161.728993 163.040993,162.419329 C165.110826,162.800203 165.229782,162.800203 167.466153,162.395524 Z M127.806247,122.165615 C132.160034,121.142014 135.704921,117.785554 137.061018,113.429298 C137.655798,111.524924 137.584424,108.04944 136.918271,106.097457 C135.133932,100.955646 130.423278,97.5277721 125.117843,97.5277721 C119.455541,97.5277721 114.435601,101.38413 112.984339,106.835402 C112.246812,109.596745 112.627471,113.024619 113.983569,115.738352 C116.481643,120.71353 122.358066,123.451068 127.806247,122.165615 Z M181.241249,105.811801 C181.574326,105.668973 182.383226,104.835809 183.001797,103.955036 C185.499872,100.550966 188.47377,98.9798576 192.446898,98.9560529 C196.372443,98.9560529 199.274968,100.527162 201.939581,104.050254 C203.033975,105.50234 203.438425,105.85941 204.080787,106.002238 C205.53205,106.26409 206.816774,105.169074 206.840565,103.669379 C206.840565,101.812614 202.867437,97.5515768 199.584253,95.9090539 C197.062388,94.6474059 195.611125,94.3141404 192.327942,94.3379451 C189.710911,94.3379451 189.116132,94.4331638 187.450749,95.0044761 C184.952674,95.8614446 183.025588,97.0516785 181.241249,98.8608342 C177.83911,102.241099 177.149166,104.621567 179.195208,105.716582 C179.980317,106.168871 180.45614,106.168871 181.241249,105.811801 Z" id="Shape" fill-rule="nonzero"></path>
                <path d="M49.057424,70.8903357 C45.0842961,65.1057986 36.9715019,56.4646999 31.2140351,51.8703967 C25.1472828,47.0380468 17.2961917,42.3247202 11.5387249,40.039471 C8.70757381,38.9206511 4.37757809,37.8256358 1.90329482,37.587589 L0,37.4209563 L7.94625588,34.5881994 C44.2278134,21.7098678 71.9207531,13.3782299 91.4533162,9.5456765 C110.724176,5.76073245 138.036457,2.83275687 176.744715,0.380874873 C185.547454,-0.166632757 186.594266,-0.142828077 192.565854,0.785554425 C206.578862,2.95178026 220.116046,8.66490336 231.297903,17.1393693 C235.43757,20.281587 238.435259,24.1617497 240.814377,29.4463886 L241.504322,30.9936928 L223.994009,31.0174975 C204.580402,31.0174975 194.921181,31.350763 181.027129,32.4219736 C153.928969,34.5643947 136.537612,38.3017294 109.820111,47.7997965 C94.0703466,53.3938962 69.5178434,63.5346897 52.5785195,71.4378433 C51.2937955,72.0329603 50.2231921,72.5328586 50.1994009,72.5328586 C50.1994009,72.5328586 49.6759949,71.7949135 49.057424,70.8903357 Z" id="Path"></path>
            </g>
            <g id="layer114" transform="translate(71.754215, 45.847813)" fill="#CDD7E3">
                <path d="M71.8255884,72.8661241 C71.2545999,72.5566633 70.4456996,71.9139369 70.0650407,71.4140387 C69.4226786,70.6284842 69.3275139,70.271414 69.2561404,68.7955239 C69.1847668,67.2244151 69.2323492,66.9863683 69.8985024,65.962767 C72.4917415,61.9159715 78.7488233,63.7489318 78.7250321,68.5574771 C78.7012409,72.1995931 75.0373984,74.4848423 71.8255884,72.8661241 Z" id="Path"></path>
                <path d="M1.18955926,44.419532 C0.499614891,42.5389624 -0.0475823706,40.9440488 0.0237911853,40.8964395 C0.285494223,40.634588 16.1542148,33.6122075 24.4811297,30.0653103 C57.1702182,16.1871821 80.8662388,8.45066124 101.207702,4.97517803 C120.121694,1.73774161 149.670347,-0.0238046796 177.934275,0.404679552 C186.618057,0.54750763 188.47377,0.52370295 189.425417,0.214242116 C190.043988,0.0238046796 190.591185,-0.0476093591 190.662559,0.0476093591 C190.805306,0.285656155 192.446898,6.57009156 192.375524,6.6415056 C192.351733,6.66531027 184.786136,6.76052899 175.555156,6.83194303 C134.229867,7.18901322 109.915276,8.95055951 92.4763372,12.8307223 C74.8946513,16.7346897 43.8947368,28.6370295 9.373727,44.7051882 C6.37603766,46.1096643 3.59246898,47.395117 3.18801883,47.5617497 L2.47428327,47.8712106 L1.18955926,44.419532 Z" id="Path"></path>
            </g>
        </g>
        <path d="M92.5665887,277.635763 C92.83473,276.986036 93.1931058,276.498748 93.6417268,276.173884 C94.0903479,275.849021 94.5312274,275.686591 94.9643788,275.686591 C95.2634594,275.686591 95.5212838,275.76136 95.7378594,275.910901 C95.9544351,276.060441 96.1323339,276.253809 96.2715611,276.491011 C96.4107883,276.728213 96.5164963,277.001507 96.5886882,277.310901 C96.66088,277.620295 96.6969754,277.929684 96.6969754,278.239077 C96.6969754,278.589724 96.66088,278.904269 96.5886882,279.182724 C96.6402538,279.182724 96.6866622,279.185302 96.7279147,279.190459 C96.7691672,279.195615 96.8155756,279.198194 96.8671412,279.198194 C97.0837169,279.198194 97.2641939,279.15952 97.4085777,279.082171 C97.5529614,279.004823 97.6689824,278.899115 97.756644,278.765044 C97.8443055,278.630974 97.9087616,278.476279 97.9500141,278.300956 C97.9912666,278.125633 98.0118926,277.939999 98.0118926,277.74405 C98.0118926,277.156202 97.9216541,276.658601 97.7411743,276.251232 C97.5606946,275.843864 97.320918,275.516427 97.0218373,275.268912 C96.7227566,275.021397 96.3824286,274.843498 96.0008428,274.73521 C95.6192571,274.626922 95.2273642,274.572779 94.8251522,274.572779 C94.1754252,274.572779 93.5978988,274.686222 93.0925556,274.913111 C92.5872123,275.139999 92.1618022,275.44681 91.8163125,275.833553 C91.4708227,276.220295 91.2052637,276.666331 91.0196274,277.171674 C90.8339911,277.677017 90.7411743,278.202979 90.7411743,278.749575 C90.7411743,279.430241 90.8391476,280.002611 91.035097,280.466702 C91.2310464,280.930793 91.491449,281.307216 91.8163125,281.595984 C92.141176,281.884751 92.5072865,282.091011 92.914655,282.214768 C93.3220235,282.338526 93.7319642,282.400403 94.1444893,282.400403 C94.7220244,282.400403 95.3047073,282.312743 95.8925556,282.13742 C96.4804038,281.962097 97.0269913,281.750681 97.5323346,281.503166 C97.6664052,281.4516 97.7798479,281.425818 97.8726661,281.425818 C98.0583023,281.425818 98.2078404,281.487696 98.3212848,281.611453 C98.4347292,281.735211 98.4914506,281.874436 98.4914506,282.029133 C98.4914506,282.256022 98.3315995,282.470016 98.0118926,282.671122 C97.6921856,282.872228 97.3028709,283.047548 96.8439368,283.197089 C96.3850026,283.346629 95.9080276,283.465228 95.4129975,283.55289 C94.9179674,283.640551 94.4951356,283.684381 94.1444893,283.684381 C93.3606916,283.684381 92.6748789,283.542578 92.0870307,283.258967 C91.4991825,282.975356 91.0118945,282.601511 90.6251522,282.13742 C90.23841,281.673329 89.9496468,281.149946 89.7588539,280.567254 C89.568061,279.984563 89.4726661,279.394145 89.4726661,278.795984 C89.4726661,278.043125 89.6067347,277.33153 89.874876,276.661177 C90.1430173,275.990824 90.5117061,275.405562 90.9809533,274.905376 C91.4502006,274.405189 92.0071011,274.010718 92.6516716,273.72195 C93.296242,273.433183 93.9897894,273.288801 94.7323346,273.288801 C95.3511222,273.288801 95.9338051,273.384196 96.4804009,273.574989 C97.0269966,273.765782 97.5065498,274.04681 97.9190749,274.418083 C98.3316,274.789356 98.6590368,275.250861 98.9013953,275.802613 C99.1437538,276.354366 99.2649312,276.991192 99.2649312,277.713111 C99.2649312,278.032818 99.2236794,278.357676 99.1411743,278.687696 C99.0586693,279.017716 98.9246007,279.311636 98.7389644,279.569464 C98.5533281,279.827292 98.3109733,280.038708 98.0118926,280.203718 C97.7128119,280.368728 97.3467014,280.451232 96.91355,280.451232 C96.7794794,280.451232 96.6247848,280.443497 96.4494616,280.428028 C96.2741385,280.412558 96.1349133,280.373884 96.0317821,280.312006 C95.8152064,280.580147 95.5573821,280.799298 95.2583014,280.969464 C94.9592207,281.139631 94.654988,281.224713 94.3455942,281.224713 C94.0980792,281.224713 93.8557243,281.162835 93.6185224,281.039077 C93.3813205,280.91532 93.1724828,280.745156 92.9920031,280.52858 C92.8115233,280.312005 92.6671417,280.059337 92.5588539,279.770569 C92.4505661,279.481802 92.396423,279.167256 92.396423,278.826923 C92.396423,278.424711 92.4531443,278.027661 92.5665887,277.635763 Z M94.0826108,277.450127 C93.9279139,277.635763 93.8170494,277.849758 93.7500141,278.092116 C93.6829788,278.334475 93.6494616,278.563938 93.6494616,278.780514 C93.6494616,278.893958 93.6623528,279.017714 93.6881357,279.151785 C93.7139185,279.285855 93.7551704,279.409611 93.8118926,279.523055 C93.8686148,279.6365 93.9459621,279.731895 94.0439368,279.809243 C94.1419115,279.886592 94.2630889,279.925265 94.4074727,279.925265 C94.593109,279.925265 94.7503818,279.8737 94.8792959,279.770569 C95.00821,279.667438 95.1139179,279.533369 95.196423,279.368359 C95.278928,279.203349 95.3382276,279.017716 95.3743235,278.811453 C95.4104195,278.605191 95.4284672,278.398931 95.4284672,278.192669 C95.4284672,278.048285 95.4207324,277.901325 95.4052627,277.751785 C95.389793,277.602244 95.3614324,277.468176 95.3201799,277.349575 C95.2789274,277.230974 95.2247843,277.133001 95.1577489,277.055652 C95.0907136,276.978304 95.0056316,276.93963 94.9025003,276.93963 C94.7581165,276.93963 94.6060002,277.001508 94.4461467,277.125265 C94.2862932,277.249023 94.1651158,277.357309 94.0826108,277.450127 Z M103.74323,282.197597 L103.74323,275.127597 L101.29323,275.127597 C100.07523,275.127597 100.07523,273.335597 101.29323,273.335597 L107.91523,273.335597 C109.16123,273.335597 109.16123,275.127597 107.91523,275.127597 L105.59123,275.127597 L105.59123,282.197597 C105.59123,283.415597 103.74323,283.443597 103.74323,282.197597 Z M111.19123,283.065597 C110.56123,283.065597 110.19723,282.687597 110.19723,282.197597 L110.19723,274.245597 C110.19723,273.741597 110.56123,273.377597 111.19123,273.377597 C111.68123,273.377597 112.04523,273.741597 112.04523,274.245597 L112.04523,277.297597 L116.60923,277.297597 L116.60923,274.245597 C116.60923,273.741597 117.05723,273.377597 117.56123,273.377597 C118.05123,273.377597 118.42923,273.741597 118.42923,274.245597 L118.42923,282.197597 C118.42923,282.687597 118.05123,283.065597 117.56123,283.065597 C117.05723,283.065597 116.60923,282.687597 116.60923,282.197597 L116.60923,279.131597 L112.04523,279.131597 L112.04523,282.197597 C112.04523,282.687597 111.68123,283.065597 111.19123,283.065597 Z M130.31523,278.165597 C130.31523,281.483597 127.75323,283.205597 125.30323,283.205597 C122.71323,283.317597 120.02523,281.595597 120.02523,278.165597 C120.02523,274.721597 122.71323,273.027597 125.30323,273.027597 C127.75323,273.153597 130.31523,274.847597 130.31523,278.165597 Z M128.48123,278.165597 C128.48123,275.953597 126.75923,274.847597 125.14923,274.847597 C123.58123,274.847597 121.87323,275.953597 121.87323,278.165597 C121.87323,280.363597 123.58123,281.483597 125.14923,281.483597 C126.75923,281.483597 128.48123,280.363597 128.48123,278.165597 Z M133.88523,279.621597 L133.88523,282.155597 C133.88523,283.373597 132.02323,283.415597 132.02323,282.183597 L132.02323,274.231597 C132.02323,273.741597 132.40123,273.377597 132.86323,273.377597 L136.58723,273.377597 C140.14323,273.377597 140.87123,278.137597 137.90323,279.327597 L139.76523,281.595597 C140.49323,282.673597 139.03723,283.709597 138.19723,282.645597 L136.08323,279.621597 L133.88523,279.621597 Z M133.88523,275.071597 L133.88523,278.011597 L136.58723,278.011597 C138.40723,278.011597 138.51923,275.071597 136.58723,275.071597 L133.88523,275.071597 Z M148.79523,273.909597 L151.27323,279.719597 L153.35923,273.951597 C153.77923,272.817597 155.47323,273.349597 155.05323,274.567597 L152.28123,282.085597 C152.02923,282.883597 151.79123,283.121597 151.31523,283.121597 C150.81123,283.121597 150.65723,282.813597 150.37723,282.309597 L147.94123,276.779597 L145.61723,282.225597 C145.36523,282.813597 145.12723,283.149597 144.62323,283.149597 C144.13323,283.149597 143.88123,282.813597 143.65723,282.197597 L140.94123,274.567597 C140.52123,273.307597 142.29923,272.845597 142.66323,273.951597 L144.73523,279.719597 L147.21323,273.951597 C147.54923,273.097597 148.43123,273.055597 148.79523,273.909597 Z M162.50123,283.065597 L157.23723,283.065597 C156.74723,283.065597 156.36923,282.687597 156.36923,282.197597 L156.36923,274.245597 C156.36923,273.741597 156.74723,273.377597 157.23723,273.377597 L162.26323,273.377597 C163.55123,273.377597 163.52323,275.197597 162.26323,275.197597 L158.23123,275.197597 L158.23123,277.297597 L161.75923,277.297597 C163.00523,277.297597 163.00523,279.131597 161.75923,279.131597 L158.23123,279.131597 L158.23123,281.231597 L162.50123,281.231597 C163.77523,281.231597 163.87323,283.065597 162.50123,283.065597 Z M170.74723,276.051597 C170.74723,275.589597 170.36923,275.085597 169.76723,275.085597 L166.81323,275.085597 L166.81323,277.171597 L169.76723,277.171597 C170.36923,277.171597 170.74723,276.793597 170.74723,276.051597 Z M170.22923,283.065597 L165.83323,283.065597 C165.32923,283.065597 164.97923,282.687597 164.97923,282.197597 L164.97923,274.245597 C164.97923,273.741597 165.32923,273.377597 165.83323,273.377597 L169.76723,273.377597 C171.60123,273.377597 172.59523,274.623597 172.59523,276.051597 C172.59523,276.681597 172.41323,277.297597 171.82523,277.815597 C172.93123,278.249597 173.42123,279.103597 173.42123,280.139597 C173.42123,281.749597 172.32923,283.065597 170.22923,283.065597 Z M166.81323,278.879597 L166.81323,281.357597 L170.22923,281.357597 C171.85323,281.357597 171.85323,278.879597 170.22923,278.879597 L166.81323,278.879597 Z M179.24523,275.085597 L176.92123,275.085597 L176.92123,281.357597 L179.24523,281.357597 C183.02523,281.357597 183.19323,275.085597 179.24523,275.085597 Z M179.37123,283.065597 L176.03923,283.065597 C175.57723,283.065597 175.07323,282.813597 175.07323,282.197597 L175.07323,274.245597 C175.07323,273.741597 175.57723,273.377597 176.03923,273.377597 L179.24523,273.377597 C185.64323,273.377597 185.50323,283.065597 179.37123,283.065597 Z M191.76123,283.065597 L186.49723,283.065597 C186.00723,283.065597 185.62923,282.687597 185.62923,282.197597 L185.62923,274.245597 C185.62923,273.741597 186.00723,273.377597 186.49723,273.377597 L191.52323,273.377597 C192.81123,273.377597 192.78323,275.197597 191.52323,275.197597 L187.49123,275.197597 L187.49123,277.297597 L191.01923,277.297597 C192.26523,277.297597 192.26523,279.131597 191.01923,279.131597 L187.49123,279.131597 L187.49123,281.231597 L191.76123,281.231597 C193.03523,281.231597 193.13323,283.065597 191.76123,283.065597 Z M199.26523,282.435597 C198.94323,283.317597 197.94923,283.527597 197.41723,282.435597 L193.72123,274.693597 C193.17523,273.587597 194.82723,272.677597 195.44323,273.839597 L196.68923,276.653597 L198.29923,280.349597 L199.88123,276.653597 L201.12723,273.839597 C201.68723,272.775597 203.31123,273.447597 202.83523,274.609597 L199.26523,282.435597 Z" id="@thorwebdev" fill="#000000" transform="translate(146.197069, 278.355989) rotate(85.000000) translate(-146.197069, -278.355989) "></path>
    </g>
</svg>